<?xml version="1.0" encoding="utf-8"?>
<!-- Generator: Adobe Illustrator 27.5.0, SVG Export Plug-In . SVG Version: 6.00 Build 0)  -->
<svg version="1.1" id="Layer_1" xmlns="http://www.w3.org/2000/svg" xmlns:xlink="http://www.w3.org/1999/xlink" x="0px" y="0px"
	 viewBox="0 0 1300 1300" style="enable-background:new 0 0 1300 1300;" xml:space="preserve">
<g id="XMLID_4_">
	<g id="XMLID_2_">
		
			<linearGradient id="XMLID_00000048490200246144018660000002867216999861880479_" gradientUnits="userSpaceOnUse" x1="327.0057" y1="717.488" x2="972.9943" y2="717.488">
			<stop  offset="0" style="stop-color:#0C2428"/>
			<stop  offset="1" style="stop-color:#002661"/>
		</linearGradient>
		<path id="XMLID_3_" style="fill:url(#XMLID_00000048490200246144018660000002867216999861880479_);" d="M463.691,820.595
			c0,0,171.532-186.783,509.303-190.105c0,0-390.658-98.151-645.989,190.105H463.691z"/>
		
			<linearGradient id="XMLID_00000111878135792754966740000014984406230202440633_" gradientUnits="userSpaceOnUse" x1="519.4097" y1="820.5949" x2="519.4097" y2="206.8194">
			<stop  offset="0" style="stop-color:#002661"/>
			<stop  offset="1" style="stop-color:#007DB0"/>
		</linearGradient>
		<polygon id="XMLID_6_" style="fill:url(#XMLID_00000111878135792754966740000014984406230202440633_);" points="327.006,820.595 
			463.691,820.595 519.409,683.91 567.293,565.509 648.259,367.88 711.814,206.819 588.187,206.819 		"/>
		
			<linearGradient id="XMLID_00000119796349366517399230000009574478550155816339_" gradientUnits="userSpaceOnUse" x1="810.6269" y1="820.5949" x2="810.6269" y2="206.8194">
			<stop  offset="0" style="stop-color:#007DB0"/>
			<stop  offset="1" style="stop-color:#002661"/>
		</linearGradient>
		<polygon id="XMLID_1_" style="fill:url(#XMLID_00000119796349366517399230000009574478550155816339_);" points="832.827,820.595 
			972.994,820.595 711.814,206.819 648.259,367.88 729.226,565.509 777.109,683.91 		"/>
	</g>
	<g id="XMLID_7_">
		<path id="XMLID_45_" style="fill:#002661;" d="M220.111,906.086h22.279v81.015h50.49v20.254h-72.77V906.086z"/>
		<path id="XMLID_47_" style="fill:#002661;" d="M299.391,957.011v-0.29c0-28.79,22.714-52.371,53.962-52.371
			c31.249,0,53.673,23.292,53.673,52.081v0.29c0,28.789-22.714,52.371-53.963,52.371
			C321.815,1009.092,299.391,985.799,299.391,957.011z M383.734,957.011v-0.29c0-17.361-12.731-31.828-30.671-31.828
			c-17.939,0-30.38,14.178-30.38,31.539v0.29c0,17.361,12.731,31.827,30.67,31.827C371.292,988.548,383.734,974.37,383.734,957.011z
			"/>
		<path id="XMLID_50_" style="fill:#002661;" d="M422.36,957.011v-0.29c0-28.79,22.424-52.371,53.094-52.371
			c18.229,0,29.223,4.919,39.785,13.888l-14.033,16.926c-7.812-6.511-14.757-10.273-26.475-10.273
			c-16.203,0-29.079,14.323-29.079,31.539v0.29c0,18.518,12.731,32.117,30.67,32.117c8.102,0,15.335-2.026,20.977-6.076v-14.468
			h-22.424v-19.24h43.98v43.979c-10.417,8.826-24.739,16.059-43.257,16.059C444.061,1009.092,422.36,986.956,422.36,957.011z"/>
		<path id="XMLID_52_" style="fill:#002661;" d="M535.784,957.011v-0.29c0-28.79,22.714-52.371,53.962-52.371
			c31.249,0,53.672,23.292,53.672,52.081v0.29c0,28.789-22.713,52.371-53.962,52.371
			C558.208,1009.092,535.784,985.799,535.784,957.011z M620.126,957.011v-0.29c0-17.361-12.731-31.828-30.67-31.828
			c-17.939,0-30.38,14.178-30.38,31.539v0.29c0,17.361,12.73,31.827,30.67,31.827C607.684,988.548,620.126,974.37,620.126,957.011z"
			/>
		<path id="XMLID_55_" style="fill:#002661;" d="M730.219,926.629h-30.815v-20.542h83.908v20.542h-30.815v80.727h-22.278V926.629z"
			/>
		<path id="XMLID_57_" style="fill:#002661;" d="M800.384,906.086h76.387v19.82h-54.252v20.542h47.741v19.821h-47.741v21.266h54.974
			v19.82h-77.109V906.086z"/>
		<path id="XMLID_59_" style="fill:#002661;" d="M924.946,955.852l-33.853-49.766h26.042l21.121,32.839l21.556-32.839h25.316
			l-33.853,49.478l35.301,51.791h-26.042l-22.713-34.722l-22.858,34.722h-25.318L924.946,955.852z"/>
		<path id="XMLID_61_" style="fill:#002661;" d="M1026.796,926.629h-30.815v-20.542h83.908v20.542h-30.815v80.727h-22.278V926.629z"
			/>
	</g>
	<g id="XMLID_5_">
		<path id="XMLID_8_" style="fill:#007DB0;" d="M220.482,1073.854v7.816H217v-51.87h3.482v23.733
			c3.126-4.761,7.744-8.954,14.921-8.954c8.739,0,17.622,7.035,17.622,18.83v0.142c0,11.795-8.882,18.971-17.622,18.971
			C228.156,1082.522,223.466,1078.402,220.482,1073.854z M249.259,1063.694v-0.142c0-9.522-6.609-15.633-14.212-15.633
			c-7.532,0-14.779,6.324-14.779,15.561v0.142c0,9.308,7.247,15.561,14.779,15.561
			C242.935,1079.184,249.259,1073.427,249.259,1063.694z"/>
		<path id="XMLID_11_" style="fill:#007DB0;" d="M284.512,1067.601v-22.168h3.482v21.53c0,7.461,4.192,12.364,11.51,12.364
			c7.106,0,12.577-5.401,12.577-12.933v-20.961h3.481v36.238h-3.481v-6.751c-2.416,4.265-6.466,7.603-13.074,7.603
			C289.841,1082.522,284.512,1076.271,284.512,1067.601z"/>
		<path id="XMLID_13_" style="fill:#007DB0;" d="M346.979,1077.123l2.061-2.771c3.978,3.055,8.384,4.761,13.003,4.761
			c4.902,0,8.739-2.701,8.739-6.893v-0.142c0-4.263-4.547-5.826-9.592-7.247c-5.898-1.706-12.435-3.482-12.435-9.947v-0.142
			c0-5.826,4.903-10.02,11.937-10.02c4.335,0,9.237,1.563,12.861,3.98l-1.847,2.913c-3.34-2.203-7.319-3.624-11.155-3.624
			c-4.974,0-8.243,2.7-8.243,6.324v0.142c0,4.05,4.903,5.542,10.09,7.034c5.826,1.634,11.937,3.767,11.937,10.162v0.142
			c0,6.465-5.542,10.587-12.505,10.587C356.572,1082.382,350.816,1080.25,346.979,1077.123z"/>
		<path id="XMLID_15_" style="fill:#007DB0;" d="M406.816,1031.221h4.334v4.761h-4.334V1031.221z M407.243,1045.433h3.481v36.238
			h-3.481V1045.433z"/>
		<path id="XMLID_18_" style="fill:#007DB0;" d="M445.76,1045.433h3.482v6.749c2.416-4.263,6.466-7.603,13.073-7.603
			c9.166,0,14.495,6.253,14.495,14.923v22.168h-3.481v-21.53c0-7.461-4.193-12.364-11.511-12.364
			c-7.106,0-12.576,5.401-12.576,12.933v20.961h-3.482V1045.433z"/>
		<path id="XMLID_20_" style="fill:#007DB0;" d="M508.156,1063.623v-0.142c0-10.516,7.389-18.901,17.195-18.901
			c10.16,0,16.627,8.243,16.627,18.972c0,0.64,0,0.852-0.071,1.421h-30.056c0.639,9.024,7.105,14.283,14.211,14.283
			c5.614,0,9.45-2.488,12.435-5.686l2.415,2.132c-3.695,3.978-8.029,6.82-14.992,6.82
			C516.399,1082.522,508.156,1074.92,508.156,1063.623z M538.212,1061.846c-0.497-7.318-4.69-14.069-13.003-14.069
			c-7.176,0-12.719,6.04-13.358,14.069H538.212z"/>
		<path id="XMLID_23_" style="fill:#007DB0;" d="M570.339,1077.123l2.061-2.771c3.978,3.055,8.385,4.761,13.003,4.761
			c4.902,0,8.739-2.701,8.739-6.893v-0.142c0-4.263-4.547-5.826-9.592-7.247c-5.898-1.706-12.435-3.482-12.435-9.947v-0.142
			c0-5.826,4.903-10.02,11.937-10.02c4.335,0,9.237,1.563,12.861,3.98l-1.847,2.913c-3.34-2.203-7.319-3.624-11.156-3.624
			c-4.973,0-8.242,2.7-8.242,6.324v0.142c0,4.05,4.903,5.542,10.09,7.034c5.826,1.634,11.937,3.767,11.937,10.162v0.142
			c0,6.465-5.542,10.587-12.505,10.587C579.931,1082.382,574.175,1080.25,570.339,1077.123z"/>
		<path id="XMLID_25_" style="fill:#007DB0;" d="M626.268,1077.123l2.061-2.771c3.978,3.055,8.384,4.761,13.002,4.761
			c4.903,0,8.739-2.701,8.739-6.893v-0.142c0-4.263-4.548-5.826-9.591-7.247c-5.899-1.706-12.435-3.482-12.435-9.947v-0.142
			c0-5.826,4.903-10.02,11.937-10.02c4.334,0,9.237,1.563,12.86,3.98l-1.846,2.913c-3.34-2.203-7.32-3.624-11.156-3.624
			c-4.974,0-8.243,2.7-8.243,6.324v0.142c0,4.05,4.903,5.542,10.091,7.034c5.826,1.634,11.937,3.767,11.937,10.162v0.142
			c0,6.465-5.542,10.587-12.506,10.587C635.86,1082.382,630.104,1080.25,626.268,1077.123z"/>
		<path id="XMLID_27_" style="fill:#007DB0;" d="M730.591,1072.362v-23.731h-5.257v-3.198h5.257v-11.581h3.482v11.581h12.718v3.198
			h-12.718v23.376c0,5.188,3.055,7.036,7.247,7.036c1.777,0,3.269-0.356,5.33-1.279v3.267c-1.848,0.854-3.624,1.281-5.899,1.281
			C735.138,1082.311,730.591,1079.255,730.591,1072.362z"/>
		<path id="XMLID_29_" style="fill:#007DB0;" d="M775.434,1071.155v-0.142c0-7.532,6.466-11.795,15.844-11.795
			c5.045,0,8.528,0.638,12.008,1.563v-1.563c0-7.318-4.476-11.085-11.937-11.085c-4.405,0-8.028,1.208-11.368,2.913l-1.279-3.055
			c3.978-1.848,7.886-3.127,12.86-3.127c4.903,0,8.81,1.35,11.441,3.98c2.415,2.415,3.694,5.755,3.694,10.231v22.595h-3.411v-6.04
			c-2.486,3.482-6.963,6.892-13.854,6.892C782.681,1082.522,775.434,1078.686,775.434,1071.155z M803.357,1068.099v-4.121
			c-3.055-0.782-7.105-1.634-12.291-1.634c-7.674,0-11.939,3.409-11.939,8.455v0.142c0,5.259,4.974,8.314,10.516,8.314
			C797.035,1079.255,803.357,1074.708,803.357,1068.099z"/>
		<path id="XMLID_32_" style="fill:#007DB0;" d="M839.818,1087.639l2.061-2.842c4.334,3.34,9.308,5.116,14.637,5.116
			c8.314,0,14.211-4.761,14.211-14.069v-5.259c-3.127,4.476-7.958,8.385-15.135,8.385c-8.739,0-17.409-6.68-17.409-17.053v-0.142
			c0-10.445,8.67-17.196,17.409-17.196c7.247,0,12.15,3.838,15.135,8.101v-7.247h3.482v30.625c0,5.257-1.706,9.38-4.619,12.293
			c-3.126,3.126-7.816,4.83-13.146,4.83C850.406,1093.181,844.793,1091.334,839.818,1087.639z M870.941,1061.846v-0.142
			c0-8.384-7.461-13.785-14.992-13.785c-7.603,0-13.998,5.259-13.998,13.714v0.142c0,8.172,6.538,13.856,13.998,13.856
			C863.481,1075.631,870.941,1070.089,870.941,1061.846z"/>
		<path id="XMLID_35_" style="fill:#007DB0;" d="M909.25,1029.8h3.48v51.87h-3.48V1029.8z"/>
		<path id="XMLID_37_" style="fill:#007DB0;" d="M947.839,1031.221h4.334v4.761h-4.334V1031.221z M948.266,1045.433h3.481v36.238
			h-3.481V1045.433z"/>
		<path id="XMLID_40_" style="fill:#007DB0;" d="M986.781,1045.433h3.482v6.749c2.415-4.263,6.466-7.603,13.073-7.603
			c9.166,0,14.496,6.253,14.496,14.923v22.168h-3.482v-21.53c0-7.461-4.192-12.364-11.51-12.364
			c-7.107,0-12.577,5.401-12.577,12.933v20.961h-3.482V1045.433z"/>
		<path id="XMLID_42_" style="fill:#007DB0;" d="M1049.178,1063.623v-0.142c0-10.516,7.389-18.901,17.196-18.901
			c10.16,0,16.627,8.243,16.627,18.972c0,0.64,0,0.852-0.071,1.421h-30.056c0.639,9.024,7.105,14.283,14.21,14.283
			c5.615,0,9.451-2.488,12.435-5.686l2.415,2.132c-3.694,3.978-8.028,6.82-14.992,6.82
			C1057.421,1082.522,1049.178,1074.92,1049.178,1063.623z M1079.233,1061.846c-0.496-7.318-4.69-14.069-13.002-14.069
			c-7.176,0-12.719,6.04-13.358,14.069H1079.233z"/>
	</g>
</g>
</svg>
